<svg height="64" viewBox="0 0 64 64" width="64" xmlns="http://www.w3.org/2000/svg"><g fill="none" fill-rule="evenodd" transform="scale(.08)"><path d="m400 0c-220.914 0-400 179.086-400 400s179.086 400 400 400 400-179.086 400-400-179.086-400-400-400z" fill="#f16c4f"/><g fill="#fff"><path d="m156.901 180.139h132.859 3.974v3.974 49.822 3.974h-3.974-79.063v124.912h45.848 3.974v3.974 49.822 3.974h-3.974-45.848v195.314 3.974h-3.974-49.822-3.974v-3.974-431.792-3.974z"/><path d="m372.428 237.909v124.912h68.517c16.582 0 31.127 14.476 31.127 30.977v194.721c0 16.705-14.545 31.359-31.127 31.359h-95.027c-16.59 0-31.143-14.289-31.143-30.578v-377.004c0-16.829 14.448-32.156 30.313-32.156h95.858c16.582 0 31.127 14.468 31.127 30.961v72.657 3.974h-3.974-49.822-3.974v-3.974-45.849zm.016 182.68v141.519h41.875v-141.519z"/><path d="m647.073 283.74v3.974h-3.974-49.822-3.974v-3.974-45.849h-41.875v124.913l69.116.016c16.441 0 30.529 19.672 30.529 35.777v189.705c0 16.812-14.266 31.558-30.529 31.558h-92.918c-16.254 0-30.512-14.367-30.512-30.744v-106.004-3.966l3.966-.007 46.368-.083 3.981-.007v3.981 79.063h41.875v-141.519l-65.706.016c-16.239 0-30.484-14.553-30.484-31.143v-178.165c0-16.599 14.258-31.16 30.512-31.16h92.918c16.263 0 30.529 14.561 30.529 31.16z"/></g></g></svg>